<svg xmlns="http://www.w3.org/2000/svg" width="24" height="24"><g fill="none" fill-rule="evenodd"><path fill="#B9B9B9" d="M0 0h24v24H0z"/><path fill="#000" fill-rule="nonzero" d="M12.89 15.98h-2.78v-.42c0-.653.11-1.203.33-1.65.22-.447.5-.837.84-1.17.34-.333.677-.633 1.01-.9.28-.227.537-.447.77-.66.233-.213.42-.45.56-.71.14-.26.21-.55.21-.87 0-.387-.07-.713-.21-.98-.14-.267-.34-.47-.6-.61-.26-.14-.583-.21-.97-.21-.4 0-.75.093-1.05.28-.3.187-.53.45-.69.79-.16.34-.24.743-.24 1.21H6.85c0-1.027.223-1.927.67-2.7a4.716 4.716 0 0 1 1.86-1.81c.793-.433 1.71-.65 2.75-.65 1.053 0 1.953.177 2.7.53.747.353 1.32.863 1.72 1.53.4.667.6 1.467.6 2.4 0 .72-.133 1.33-.4 1.83s-.597.917-.99 1.25c-.393.333-.783.633-1.17.9-.453.307-.85.627-1.19.96-.34.333-.51.747-.51 1.24v.42Zm-1.3 4.28c-.507 0-.94-.177-1.3-.53a1.717 1.717 0 0 1-.54-1.27c0-.507.18-.937.54-1.29.36-.353.793-.53 1.3-.53s.94.18 1.3.54c.36.36.54.787.54 1.28 0 .48-.18.9-.54 1.26-.36.36-.793.54-1.3.54Z"/></g></svg>