<svg width="1508" height="548" fill="none" xmlns="http://www.w3.org/2000/svg"><svg><circle cx="39" cy="39" r="39" fill="inherit"/></svg><svg fill="#F2AB40"><circle cx="39" cy="39" r="39" fill="inherit"/></svg><svg x="94" fill="#79E6F1"><circle cx="39" cy="39" r="39" fill="inherit"/></svg><svg x="188" fill="#A9B5C8"><circle cx="39" cy="39" r="39" fill="inherit"/></svg><svg x="282" fill="#FFE994"><circle cx="39" cy="39" r="39" fill="inherit"/></svg><svg x="376" fill="#79E6F1"><circle cx="39" cy="39" r="39" fill="inherit"/></svg><svg x="470" fill="#FFA19E"><circle cx="39" cy="39" r="39" fill="inherit"/></svg><svg x="564" fill="#C9939B"><circle cx="39" cy="39" r="39" fill="inherit"/></svg><svg x="658" fill="#FFE994"><circle cx="39" cy="39" r="39" fill="inherit"/></svg><svg x="752" fill="#FFE994"><circle cx="39" cy="39" r="39" fill="inherit"/></svg><svg x="846" fill="#79E6F1"><circle cx="39" cy="39" r="39" fill="inherit"/></svg><svg x="940" fill="#FFA19E"><circle cx="39" cy="39" r="39" fill="inherit"/></svg><svg x="1034" fill="#79E6F1"><circle cx="39" cy="39" r="39" fill="inherit"/></svg><svg x="1128" fill="#9DD37C"><circle cx="39" cy="39" r="39" fill="inherit"/></svg><svg x="1222" fill="#9DD37C"><circle cx="39" cy="39" r="39" fill="inherit"/></svg><svg x="1316" fill="#9DD37C"><circle cx="39" cy="39" r="39" fill="inherit"/></svg><svg x="1410" fill="#F2AB40"><circle cx="39" cy="39" r="39" fill="inherit"/></svg><svg y="94" fill="#9DD37C"><circle cx="39" cy="39" r="39" fill="inherit"/></svg><svg x="94" y="94" fill="#C9939B"><circle cx="39" cy="39" r="39" fill="inherit"/></svg><svg x="188" y="94" fill="#6B8E8E"><circle cx="39" cy="39" r="39" fill="inherit"/></svg><svg x="282" y="94" fill="#A9B5C8"><circle cx="39" cy="39" r="39" fill="inherit"/></svg><svg x="376" y="94" fill="#F2AB40"><circle cx="39" cy="39" r="39" fill="inherit"/></svg><svg x="470" y="94" fill="#FFE994"><circle cx="39" cy="39" r="39" fill="inherit"/></svg><svg x="564" y="94" fill="#FFE994"><circle cx="39" cy="39" r="39" fill="inherit"/></svg><svg x="658" y="94" fill="#9DD37C"><circle cx="39" cy="39" r="39" fill="inherit"/></svg><svg x="752" y="94" fill="#A9B5C8"><circle cx="39" cy="39" r="39" fill="inherit"/></svg><svg x="846" y="94" fill="#C9939B"><circle cx="39" cy="39" r="39" fill="inherit"/></svg><svg x="940" y="94" fill="#F2AB40"><circle cx="39" cy="39" r="39" fill="inherit"/></svg><svg x="1034" y="94" fill="#F2AB40"><circle cx="39" cy="39" r="39" fill="inherit"/></svg><svg x="1128" y="94" fill="#C9939B"><circle cx="39" cy="39" r="39" fill="inherit"/></svg><svg x="1222" y="94" fill="#C9939B"><circle cx="39" cy="39" r="39" fill="inherit"/></svg><svg x="1316" y="94" fill="#79E6F1"><circle cx="39" cy="39" r="39" fill="inherit"/></svg><svg x="1410" y="94" fill="#C9939B"><circle cx="39" cy="39" r="39" fill="inherit"/></svg><svg y="188" fill="#A9B5C8"><circle cx="39" cy="39" r="39" fill="inherit"/></svg><svg x="94" y="188" fill="#79E6F1"><circle cx="39" cy="39" r="39" fill="inherit"/></svg><svg x="188" y="188" fill="#FFA19E"><circle cx="39" cy="39" r="39" fill="inherit"/></svg><svg x="282" y="188" fill="#9DD37C"><circle cx="39" cy="39" r="39" fill="inherit"/></svg><svg x="376" y="188" fill="#6B8E8E"><circle cx="39" cy="39" r="39" fill="inherit"/></svg><svg x="470" y="188" fill="#79E6F1"><circle cx="39" cy="39" r="39" fill="inherit"/></svg><svg x="564" y="188" fill="#6B8E8E"><circle cx="39" cy="39" r="39" fill="inherit"/></svg><svg x="658" y="188" fill="#6B8E8E"><circle cx="39" cy="39" r="39" fill="inherit"/></svg><svg x="752" y="188" fill="#A9B5C8"><circle cx="39" cy="39" r="39" fill="inherit"/></svg><svg x="846" y="188" fill="#FFE994"><circle cx="39" cy="39" r="39" fill="inherit"/></svg><svg x="940" y="188" fill="#9DD37C"><circle cx="39" cy="39" r="39" fill="inherit"/></svg><svg x="1034" y="188" fill="#A9B5C8"><circle cx="39" cy="39" r="39" fill="inherit"/></svg><svg x="1128" y="188" fill="#6B8E8E"><circle cx="39" cy="39" r="39" fill="inherit"/></svg><svg x="1222" y="188" fill="#C9939B"><circle cx="39" cy="39" r="39" fill="inherit"/></svg><svg x="1316" y="188" fill="#FFA19E"><circle cx="39" cy="39" r="39" fill="inherit"/></svg><svg x="1410" y="188" fill="#79E6F1"><circle cx="39" cy="39" r="39" fill="inherit"/></svg><svg y="282" fill="#FFA19E"><circle cx="39" cy="39" r="39" fill="inherit"/></svg><svg x="94" y="282" fill="#6B8E8E"><circle cx="39" cy="39" r="39" fill="inherit"/></svg><svg x="188" y="282" fill="#79E6F1"><circle cx="39" cy="39" r="39" fill="inherit"/></svg><svg x="282" y="282" fill="#C9939B"><circle cx="39" cy="39" r="39" fill="inherit"/></svg><svg x="376" y="282" fill="#FFA19E"><circle cx="39" cy="39" r="39" fill="inherit"/></svg><svg x="470" y="282" fill="#A9B5C8"><circle cx="39" cy="39" r="39" fill="inherit"/></svg><svg x="564" y="282" fill="#79E6F1"><circle cx="39" cy="39" r="39" fill="inherit"/></svg><svg x="658" y="282" fill="#6B8E8E"><circle cx="39" cy="39" r="39" fill="inherit"/></svg><svg x="752" y="282" fill="#6B8E8E"><circle cx="39" cy="39" r="39" fill="inherit"/></svg><svg x="846" y="282" fill="#A9B5C8"><circle cx="39" cy="39" r="39" fill="inherit"/></svg><svg x="940" y="282" fill="#6B8E8E"><circle cx="39" cy="39" r="39" fill="inherit"/></svg><svg x="1034" y="282" fill="#F2AB40"><circle cx="39" cy="39" r="39" fill="inherit"/></svg><svg x="1128" y="282" fill="#9DD37C"><circle cx="39" cy="39" r="39" fill="inherit"/></svg><svg x="1222" y="282" fill="#9DD37C"><circle cx="39" cy="39" r="39" fill="inherit"/></svg><svg x="1316" y="282" fill="#A9B5C8"><circle cx="39" cy="39" r="39" fill="inherit"/></svg><svg x="1410" y="282" fill="#C9939B"><circle cx="39" cy="39" r="39" fill="inherit"/></svg><svg y="376" fill="#FFE994"><circle cx="39" cy="39" r="39" fill="inherit"/></svg><svg x="94" y="376" fill="#FFE994"><circle cx="39" cy="39" r="39" fill="inherit"/></svg><svg x="188" y="376" fill="#F2AB40"><circle cx="39" cy="39" r="39" fill="inherit"/></svg><svg x="282" y="376" fill="#A9B5C8"><circle cx="39" cy="39" r="39" fill="inherit"/></svg><svg x="376" y="376" fill="#79E6F1"><circle cx="39" cy="39" r="39" fill="inherit"/></svg><svg x="470" y="376" fill="#FFA19E"><circle cx="39" cy="39" r="39" fill="inherit"/></svg><svg x="564" y="376" fill="#FFE994"><circle cx="39" cy="39" r="39" fill="inherit"/></svg><svg x="658" y="376" fill="#6B8E8E"><circle cx="39" cy="39" r="39" fill="inherit"/></svg><svg x="752" y="376" fill="#C9939B"><circle cx="39" cy="39" r="39" fill="inherit"/></svg><svg x="846" y="376" fill="#9DD37C"><circle cx="39" cy="39" r="39" fill="inherit"/></svg><svg x="940" y="376" fill="#C9939B"><circle cx="39" cy="39" r="39" fill="inherit"/></svg><svg x="1034" y="376" fill="#F2AB40"><circle cx="39" cy="39" r="39" fill="inherit"/></svg><svg x="1128" y="376" fill="#A9B5C8"><circle cx="39" cy="39" r="39" fill="inherit"/></svg><svg x="1222" y="376" fill="#FFA19E"><circle cx="39" cy="39" r="39" fill="inherit"/></svg><svg x="1316" y="376" fill="#F2AB40"><circle cx="39" cy="39" r="39" fill="inherit"/></svg><svg x="1410" y="376" fill="#A9B5C8"><circle cx="39" cy="39" r="39" fill="inherit"/></svg><svg y="470" fill="#C9939B"><circle cx="39" cy="39" r="39" fill="inherit"/></svg><svg x="94" y="470" fill="#FFE994"><circle cx="39" cy="39" r="39" fill="inherit"/></svg><svg x="188" y="470" fill="#FFE994"><circle cx="39" cy="39" r="39" fill="inherit"/></svg><svg x="282" y="470" fill="#FFE994"><circle cx="39" cy="39" r="39" fill="inherit"/></svg><svg x="376" y="470" fill="#F2AB40"><circle cx="39" cy="39" r="39" fill="inherit"/></svg><svg x="470" y="470" fill="#9DD37C"><circle cx="39" cy="39" r="39" fill="inherit"/></svg><svg x="564" y="470" fill="#FFA19E"><circle cx="39" cy="39" r="39" fill="inherit"/></svg><svg x="658" y="470" fill="#6B8E8E"><circle cx="39" cy="39" r="39" fill="inherit"/></svg><svg x="752" y="470" fill="#FFA19E"><circle cx="39" cy="39" r="39" fill="inherit"/></svg><svg x="846" y="470" fill="#FFA19E"><circle cx="39" cy="39" r="39" fill="inherit"/></svg><svg x="940" y="470" fill="#F2AB40"><circle cx="39" cy="39" r="39" fill="inherit"/></svg><svg x="1034" y="470" fill="#F2AB40"><circle cx="39" cy="39" r="39" fill="inherit"/></svg><svg x="1128" y="470" fill="#9DD37C"><circle cx="39" cy="39" r="39" fill="inherit"/></svg><svg x="1222" y="470" fill="#79E6F1"><circle cx="39" cy="39" r="39" fill="inherit"/></svg><svg x="1316" y="470" fill="#FFA19E"><circle cx="39" cy="39" r="39" fill="inherit"/></svg><svg x="1410" y="470" fill="#6B8E8E"><circle cx="39" cy="39" r="39" fill="inherit"/></svg></svg>