<?xml version="1.0" encoding="UTF-8"?>
<svg width="194px" height="193px" viewBox="0 0 194 193" version="1.1" xmlns="http://www.w3.org/2000/svg" xmlns:xlink="http://www.w3.org/1999/xlink">
    <title>logo2024</title>
    <defs>
        <linearGradient x1="50%" y1="-19.371564%" x2="50%" y2="100%" id="linearGradient-1">
            <stop stop-color="#FFE958" offset="0%"></stop>
            <stop stop-color="#FFD31B" offset="100%"></stop>
        </linearGradient>
        <path d="M84.3635727,190.000708 C97.3635727,186.900708 114.763573,177.700708 138.363573,161.600708 C153.063573,151.500708 156.963573,148.400708 166.163573,139.500708 C182.963573,123.300708 190.263573,107.500708 191.563573,84.4007081 C192.863573,60.5007081 184.563573,39.5007081 168.763573,26.7007081 C148.663573,10.4007081 108.163573,-0.0992919482 65.8635727,0 C50.1635727,0 45.9635727,0.300708052 38.4635727,2.20070805 C12.8635727,8.60070805 1.96357271,22.5007081 0.163572709,50.9007081 C-1.73642729,82.1007081 13.1635727,134.700708 31.9635727,163.400708 C34.3635727,167.000708 39.4635727,173.100708 43.2635727,177.000708 C56.1635727,189.900708 68.2635727,193.700708 84.3635727,190.000708 Z" id="path-2"></path>
    </defs>
    <g id="Page-1" stroke="none" stroke-width="1" fill="none" fill-rule="evenodd">
        <g id="logo2024" transform="translate(1.1364, 0.5993)">
            <g id="Path" fill-rule="nonzero">
                <use fill="#000000" xlink:href="#path-2"></use>
                <use stroke="#FFCF0B" stroke-width="1" fill="url(#linearGradient-1)" xlink:href="#path-2"></use>
            </g>
            <path d="M85.9839397,174.867563 C96.922206,172.259208 111.562655,164.518281 131.419815,150.971659 C143.78847,142.473467 147.06995,139.865112 154.810876,132.376606 C168.946482,118.745844 175.088739,105.451643 176.182566,86.0151856 C177.276392,65.9056039 170.29273,48.2360969 156.99853,37.4661117 C140.086287,23.7512087 106.009381,14.9164552 70.4179455,15 C57.2078856,15 53.6739842,15.2530173 47.363446,16.851687 C25.8234756,22.2366796 16.6521601,33.9322104 15.1376309,57.828115 C13.5389612,84.0799539 26.0758971,128.337862 41.8943129,152.486188 C43.9136851,155.515246 48.2048511,160.647817 51.4021904,163.929297 C62.2563161,174.783423 72.4373178,177.980762 85.9839397,174.867563 Z" id="Path-Copy" fill="#FFE958" fill-rule="nonzero"></path>
            <text id="ff" font-family="iAWriterDuospace-Bold, iA Writer Duospace" font-size="99" font-weight="bold" letter-spacing="-11.2399367" fill="#333333">
                <tspan x="37" y="126">ff</tspan>
            </text>
        </g>
    </g>
</svg>