<?xml version="1.0" encoding="UTF-8"?>
<svg width="194px" height="193px" viewBox="0 0 194 193" version="1.1" xmlns="http://www.w3.org/2000/svg" xmlns:xlink="http://www.w3.org/1999/xlink">
    <title>logo2024</title>
    <defs>
        <linearGradient x1="50%" y1="-19.371564%" x2="50%" y2="100%" id="linearGradient-1">
            <stop stop-color="#FFE958" offset="0%"></stop>
            <stop stop-color="#FFD31B" offset="100%"></stop>
        </linearGradient>
    </defs>
    <g id="Page-1" stroke="none" stroke-width="1" fill="none" fill-rule="evenodd">
        <g id="logo2024" transform="translate(1.1364, 0.5986)" fill-rule="nonzero">
            <g id="Path">
                <g id="path-2-link" fill="#000000">
                    <path d="M84.3635727,190.001406 C97.3635727,186.901406 114.763573,177.701406 138.363573,161.601406 C153.063573,151.501406 156.963573,148.401406 166.163573,139.501406 C182.963573,123.301406 190.263573,107.501406 191.563573,84.4014062 C192.863573,60.5014062 184.563573,39.5014062 168.763573,26.7014062 C148.663573,10.4014062 108.163573,-0.0985938446 65.8635727,-1.44448255e-15 C50.1635727,-1.44448255e-15 45.9635727,0.301406156 38.4635727,2.20140615 C12.8635727,8.60140615 1.96357271,22.5014062 0.163572709,50.9014062 C-1.73642729,82.1014062 13.1635727,134.701406 31.9635727,163.401406 C34.3635727,167.001406 39.4635727,173.101406 43.2635727,177.001406 C56.1635727,189.901406 68.2635727,193.701406 84.3635727,190.001406 Z" id="path-2"></path>
                </g>
                <g id="path-2-link" fill="url(#linearGradient-1)" stroke="#FFCF0B">
                    <path d="M84.3635727,190.001406 C97.3635727,186.901406 114.763573,177.701406 138.363573,161.601406 C153.063573,151.501406 156.963573,148.401406 166.163573,139.501406 C182.963573,123.301406 190.263573,107.501406 191.563573,84.4014062 C192.863573,60.5014062 184.563573,39.5014062 168.763573,26.7014062 C148.663573,10.4014062 108.163573,-0.0985938446 65.8635727,-1.44448255e-15 C50.1635727,-1.44448255e-15 45.9635727,0.301406156 38.4635727,2.20140615 C12.8635727,8.60140615 1.96357271,22.5014062 0.163572709,50.9014062 C-1.73642729,82.1014062 13.1635727,134.701406 31.9635727,163.401406 C34.3635727,167.001406 39.4635727,173.101406 43.2635727,177.001406 C56.1635727,189.901406 68.2635727,193.701406 84.3635727,190.001406 Z" id="path-2"></path>
                </g>
            </g>
            <path d="M85.9839397,174.868261 C96.922206,172.259906 111.562655,164.518979 131.419815,150.972357 C143.78847,142.474165 147.06995,139.86581 154.810876,132.377304 C168.946482,118.746542 175.088739,105.452341 176.182566,86.0158837 C177.276392,65.906302 170.29273,48.236795 156.99853,37.4668098 C140.086287,23.7519068 106.009381,14.9171533 70.4179455,15.0001107 C57.2078856,15.0001107 53.6739842,15.2537154 47.363446,16.8523851 C25.8234756,22.2373777 16.6521601,33.9329085 15.1376309,57.8288131 C13.5389612,84.080652 26.0758971,128.33856 41.8943129,152.486886 C43.9136851,155.515944 48.2048511,160.648515 51.4021904,163.929995 C62.2563161,174.784121 72.4373178,177.98146 85.9839397,174.868261 Z" id="Path-Copy" fill="#FFE958"></path>
            <path d="M107.477,74.9166981 L107.477,67.4916981 C107.477,58.8786981 112.427,52.7406981 123.119,52.7406981 L140.444,52.7406981 L140.444,64.1256981 L122.129,64.1256981 L122.129,74.9166981 L140.444,74.9166981 L140.444,86.3016981 L122.129,86.3016981 L122.129,114.615698 L138.167,114.615698 L138.167,126.000698 L92.429,126.000698 L92.429,114.615698 L107.477,114.615698 L107.477,86.3016981 L73.729,86.3016981 L73.729,114.615698 L89.767,114.615698 L89.767,126.000698 L44.029,126.000698 L44.029,114.615698 L59.077,114.615698 L59.077,86.3016981 L43.039,86.3016981 L43.039,74.9166981 L59.077,74.9166981 L59.077,67.4916981 C59.077,58.8786981 64.027,52.7406981 74.719,52.7406981 L92.044,52.7406981 L92.044,64.1256981 L73.729,64.1256981 L73.729,74.9166981 L107.477,74.9166981 Z" id="Path" fill="#333333"></path>
        </g>
    </g>
</svg>