<svg width="360" height="360" fill="none" xmlns="http://www.w3.org/2000/svg"><path d="M122.379 18.136c37.87-.102 74.91 4.547 106.953 12.854 32.078 8.317 59.005 20.264 76.759 34.66 27.753 22.495 42.512 59.511 40.247 101.892-1.17 20.559-5.001 37.755-12.218 53.388-7.219 15.635-17.871 29.806-32.814 44.253-16.498 15.863-23.422 21.417-49.753 39.417-42.421 28.926-73.419 45.256-96.375 50.718-14.218 3.269-26.52 3.205-38.06-.429-11.556-3.638-22.522-10.912-33.97-22.348-6.75-6.951-15.823-17.809-20.042-24.131-16.73-25.524-31.802-61.805-42.257-98.734-10.458-36.945-16.233-74.318-14.516-102.007L122.38 18.136Zm0 0h-.012l-.075.002-.299.005c-.264.005-.652.012-1.152.023a593.74 593.74 0 0 0-17.946.67c-10.665.566-22.78 1.551-29.297 3.196l-.006.001C50.86 27.694 34.928 36.63 24.25 50.218 13.553 63.828 7.918 82.37 6.333 107.667l116.046-89.53Z" stroke="#000" stroke-width="4"/><path d="M238.287 341.56c-37.869.102-74.91-4.547-106.953-12.855-32.078-8.316-59.005-20.263-76.758-34.658-27.753-22.496-42.513-59.512-40.248-101.893 1.17-20.559 5.001-37.756 12.219-53.388 7.218-15.635 17.87-29.806 32.813-44.253C75.86 78.65 82.782 73.096 109.113 55.096c42.421-28.926 73.42-45.256 96.376-50.719 14.217-3.269 26.519-3.205 38.06.43 11.555 3.638 22.521 10.911 33.97 22.348 6.749 6.95 15.822 17.81 20.041 24.13 16.731 25.525 31.803 61.806 42.257 98.735 10.459 36.945 16.233 74.318 14.516 102.007L238.287 341.56Zm0 0 .012-.001.076-.001.299-.005 1.152-.023a594.778 594.778 0 0 0 17.946-.67c10.665-.566 22.779-1.551 29.296-3.196l.006-.001c22.732-5.661 38.665-14.597 49.344-28.185 10.695-13.61 16.33-32.152 17.915-57.45L238.287 341.56Z" stroke="#000" stroke-width="4"/><path d="M333.797 127.308c.1 37.017-4.444 73.223-12.563 104.543-8.128 31.356-19.803 57.672-33.867 75.021-21.976 27.117-58.141 41.542-99.553 39.328-20.09-1.144-36.892-4.888-52.164-11.94-15.276-7.054-29.122-17.464-43.24-32.068-15.503-16.127-20.93-22.893-38.523-48.634-28.27-41.466-44.226-71.762-49.564-94.194-3.194-13.894-3.131-25.913.418-37.187 3.554-11.287 10.658-22.001 21.832-33.19 6.792-6.596 17.401-15.462 23.577-19.585 24.943-16.353 60.399-31.086 96.492-41.305 36.109-10.223 72.632-15.867 99.689-14.189 24.721 1.55 42.833 7.056 56.126 17.504 13.271 10.432 22.001 25.996 27.532 48.213l.002.006c1.606 6.366 2.568 18.205 3.122 28.631a587.098 587.098 0 0 1 .654 17.542c.011.489.018.869.023 1.126l.005.293.001.073.001.012Z" stroke="#000" stroke-width="4"/><path d="M31.245 229.419c-.098-36.46 4.377-72.121 12.373-102.97 8.006-30.884 19.504-56.802 33.353-73.886 21.64-26.703 57.251-40.909 98.033-38.729 19.786 1.127 36.331 4.814 51.371 11.759 15.042 6.946 28.677 17.198 42.581 31.582 15.268 15.883 20.612 22.547 37.94 47.899 27.847 40.848 43.562 70.688 48.817 92.779 3.145 13.681 3.082 25.514-.412 36.612-3.498 11.112-10.492 21.662-21.496 32.681-6.689 6.496-17.138 15.228-23.219 19.288-24.565 16.106-59.486 30.617-95.035 40.682-35.564 10.07-71.536 15.629-98.181 13.976-24.347-1.526-42.18-6.95-55.267-17.236-13.065-10.27-21.66-25.594-27.108-47.475l-.002-.006c-1.58-6.267-2.529-17.925-3.074-28.196a572.981 572.981 0 0 1-.667-18.388l-.005-.288-.002-.073v-.011Z" stroke="#000" stroke-width="4"/><path fill-rule="evenodd" clip-rule="evenodd" d="M132.107 215.27v-37.756h-25.216v-23.39h25.216v-6.663c0-23.32 17.297-40.047 41.402-40.047 13.546 0 12.643.902 13.268 1.804 0 6.872-3.126 22.071-3.126 22.071h-9.239c-10.767 1.111-15.282 5.761-15.282 15.825v7.01h37.789v-9.509c0-19.572 18.756-36.299 39.805-36.299 7.641 0 14.24.347 14.796.902.556.556.139 5.553-.903 11.313l-1.806 10.273h-7.78c-10.559 0-16.881 5.344-18.339 15.755l-1.112 7.634h31.191v23.321h-30.566v75.444h-25.286v-75.444H159.13l-.348 37.34-.555 37.201-12.991.556-13.129.555V215.27Z" fill="#000"/></svg>