<svg width="47" height="42" fill="none" xmlns="http://www.w3.org/2000/svg"><path d="M6.009 42c-.326 0-.654-.039-.979-.12L.758 40.811a1 1 0 0 1-.758-.97V1a1 1 0 0 1 1-1h2c3.859 0 7 3.141 7 7v5.586l5.209 5.209a2.97 2.97 0 0 1 .771 2.922 2.97 2.97 0 0 1-2.163 2.109L10 23.78V28a1 1 0 0 1-.625.927l-2.672 1.082a.982.982 0 0 0-.625.907.984.984 0 0 0 .587.931l2.747 1.242A.998.998 0 0 1 10 34v3.998c0 1.24-.561 2.39-1.538 3.152a3.972 3.972 0 0 1-2.453.85Z" fill="#EAD8C5"/><path d="M42 32H16a1.001 1.001 0 0 1-.8-1.6l5.8-7.733V11c0-2.757 2.243-5 5-5h16c2.757 0 5 2.243 5 5v16c0 2.757-2.243 5-5 5Z" fill="#E6E6E6"/><path d="M40 16H28a1 1 0 1 1 0-2h12a1 1 0 1 1 0 2ZM34 24h-6a1 1 0 1 1 0-2h6a1 1 0 1 1 0 2Z" fill="#B3B3B3"/></svg>