<svg width="45" height="44" fill="none" xmlns="http://www.w3.org/2000/svg"><path d="M36.843 7.814a2.85 2.85 0 0 0-2.49 3.362c.027.224.69 5.166 1.353 8.308L21.829 5.607a2.499 2.499 0 0 0-3.708.192 2.6 2.6 0 0 0 .273 3.445l8.032 8.031a1 1 0 1 1-1.415 1.414l-10.96-10.96a2.499 2.499 0 0 0-3.708.191 2.6 2.6 0 0 0 .273 3.445l10.86 10.859a1 1 0 1 1-1.414 1.415L9.909 13.486a2.6 2.6 0 0 0-3.445-.273 2.5 2.5 0 0 0-.191 3.708l10.253 10.253a1 1 0 0 1-1.414 1.414l-6.617-6.616A2.6 2.6 0 0 0 5.05 21.7a2.5 2.5 0 0 0-.191 3.708l8.7 8.7 5.8 5.8a14.001 14.001 0 0 0 19.8 0l1.735-1.736a13.961 13.961 0 0 0 3.391-14.3c-1.465-4.377-3.545-9.312-4.542-13.795a2.832 2.832 0 0 0-2.9-2.263Z" fill="#FFD764"/><path d="M34.209 33.533a1.001 1.001 0 0 1-1.415 0c-3.9-3.9-3.581-10.56.707-14.849a1.002 1.002 0 0 1 1.415 1.416c-3.51 3.509-3.827 8.9-.707 12.021a1 1 0 0 1 0 1.412Z" fill="#E2AC4B"/><path d="M34 7a1 1 0 0 1-.858-.485A9.979 9.979 0 0 0 25 2a1 1 0 1 1 0-2 12.007 12.007 0 0 1 9.857 5.485A1 1 0 0 1 34 7ZM30 10a1 1 0 0 1-.948-.684A3.44 3.44 0 0 0 26 7a1 1 0 1 1 0-2c3.679 0 4.9 3.533 4.948 3.684A1 1 0 0 1 30 10ZM9 40a.992.992 0 0 1-.143-.01c-.077-.011-7.754-1.2-8.848-8.848a1 1 0 0 1 1.98-.284c.878 6.15 6.9 7.115 7.155 7.152A1 1 0 0 1 9 40ZM9 35c-.107 0-.214-.017-.316-.051a7.818 7.818 0 0 1-4.632-4.633 1.001 1.001 0 0 1 1.9-.632 5.791 5.791 0 0 0 3.368 3.367A1 1 0 0 1 9 35Z" fill="#B3B3B3"/></svg>