<svg width="40" height="46" fill="none" xmlns="http://www.w3.org/2000/svg"><path d="M34.5 36h-4a1.5 1.5 0 1 1 0-3h4a2.5 2.5 0 0 0 2.5-2.5V22h-6.5a1.5 1.5 0 1 1 0-3h8a1.5 1.5 0 0 1 1.5 1.5v10a5.506 5.506 0 0 1-5.5 5.5Z" fill="#B3B3B3"/><path d="M31 14H1a1 1 0 0 0-1 1v24a7.008 7.008 0 0 0 7 7h18a7.008 7.008 0 0 0 7-7V15a1 1 0 0 0-1-1Z" fill="#C19F85"/><path d="M10 8a1 1 0 0 1-1-1V1a1 1 0 0 1 2 0v6a1 1 0 0 1-1 1ZM16 10a1 1 0 0 1-1-1V3a1 1 0 0 1 2 0v6a1 1 0 0 1-1 1ZM4 10a1 1 0 0 1-1-1V3a1 1 0 0 1 2 0v6a1 1 0 0 1-1 1ZM22 8a1 1 0 0 1-1-1V1a1 1 0 0 1 2 0v6a1 1 0 0 1-1 1ZM28 10a1 1 0 0 1-1-1V3a1 1 0 0 1 2 0v6a1 1 0 0 1-1 1Z" fill="#E86C60"/></svg>