<svg width="46" height="46" viewBox="0 0 46 46" fill="none" xmlns="http://www.w3.org/2000/svg">
<path d="M23 46C35.7025 46 46 35.7025 46 23C46 10.2975 35.7025 0 23 0C10.2975 0 0 10.2975 0 23C0 35.7025 10.2975 46 23 46Z" fill="url(#paint0_linear_206_859)"/>
<path d="M31 24H23C22.7 24 22.4 23.8 22.2 23.6L14.2 11.6C13.9 11.1 14 10.5 14.5 10.2C15 9.9 15.6 10 15.9 10.5L23.5 22H31C31.6 22 32 22.4 32 23C32 23.6 31.6 24 31 24Z" fill="url(#paint1_linear_206_859)"/>
<path d="M22 4C22 3.4 22.4 3 23 3C23.6 3 24 3.4 24 4V8C24 8.6 23.6 9 23 9C22.4 9 22 8.6 22 8V4Z" fill="url(#paint2_linear_206_859)"/>
<path d="M8 24H4C3.4 24 3 23.6 3 23C3 22.4 3.4 22 4 22H8C8.6 22 9 22.4 9 23C9 23.6 8.6 24 8 24Z" fill="url(#paint3_linear_206_859)"/>
<path d="M24 42C24 42.6 23.6 43 23 43C22.4 43 22 42.6 22 42V38C22 37.4 22.4 37 23 37C23.6 37 24 37.4 24 38V42Z" fill="url(#paint4_linear_206_859)"/>
<path d="M42 24H38C37.4 24 37 23.6 37 23C37 22.4 37.4 22 38 22H42C42.6 22 43 22.4 43 23C43 23.6 42.6 24 42 24Z" fill="url(#paint5_linear_206_859)"/>
<defs>
<linearGradient id="paint0_linear_206_859" x1="23" y1="0" x2="23" y2="46" gradientUnits="userSpaceOnUse">
<stop stop-color="#C5DCE7"/>
<stop offset="1" stop-color="#80B0CB"/>
</linearGradient>
<linearGradient id="paint1_linear_206_859" x1="23.0156" y1="10.0312" x2="23.0156" y2="24" gradientUnits="userSpaceOnUse">
<stop stop-color="#4480A7"/>
<stop offset="1" stop-color="#32597C"/>
</linearGradient>
<linearGradient id="paint2_linear_206_859" x1="23" y1="3" x2="23" y2="43.5" gradientUnits="userSpaceOnUse">
<stop stop-color="#80B0CB"/>
<stop offset="1" stop-color="#4480A7"/>
</linearGradient>
<linearGradient id="paint3_linear_206_859" x1="6" y1="3" x2="6" y2="42.5" gradientUnits="userSpaceOnUse">
<stop stop-color="#80B0CB"/>
<stop offset="1" stop-color="#4480A7"/>
</linearGradient>
<linearGradient id="paint4_linear_206_859" x1="23" y1="3.5" x2="23" y2="43" gradientUnits="userSpaceOnUse">
<stop stop-color="#80B0CB"/>
<stop offset="1" stop-color="#4480A7"/>
</linearGradient>
<linearGradient id="paint5_linear_206_859" x1="40" y1="3.5" x2="40" y2="43.5" gradientUnits="userSpaceOnUse">
<stop stop-color="#80B0CB"/>
<stop offset="1" stop-color="#4480A7"/>
</linearGradient>
</defs>
</svg>
