<svg version="1.1" id="Layer_1" xmlns="http://www.w3.org/2000/svg" xmlns:xlink="http://www.w3.org/1999/xlink" viewBox="0 0 344.98 344.98" xml:space="preserve" width="256px" height="256px" fill="#000000"><g id="SVGRepo_bgCarrier" stroke-width="0"></g><g id="SVGRepo_tracerCarrier" stroke-linecap="round" stroke-linejoin="round"></g><g id="SVGRepo_iconCarrier"> <g> <g> <path style="fill:#669FF2;" d="M183.092,94.202c0,11.67-2.62,22.72-7.31,32.61c-12.22,25.81-38.51,43.66-68.96,43.66 c-42.13,0-76.27-34.15-76.27-76.27s34.14-76.27,76.27-76.27C148.942,17.932,183.092,52.082,183.092,94.202z"></path> <path style="fill:#FFFFFF;" d="M87.335,42.662c-2.286,0-4.421-1.436-5.203-3.72c-0.984-2.874,0.548-6.001,3.422-6.985 c3.135-1.073,6.379-1.914,9.641-2.499c2.996-0.536,5.848,1.454,6.384,4.443c0.536,2.99-1.454,5.848-4.443,6.384 c-2.713,0.486-5.411,1.186-8.018,2.079C88.527,42.566,87.926,42.662,87.335,42.662z"></path> <path style="fill:#FFFFFF;" d="M47.781,87.57c-0.367,0-0.738-0.037-1.111-0.113c-2.976-0.61-4.893-3.518-4.282-6.493 c3.379-16.471,12.868-30.898,26.719-40.624c2.487-1.745,5.917-1.145,7.662,1.341s1.145,5.917-1.341,7.662 c-11.545,8.106-19.452,20.121-22.265,33.832C52.629,85.777,50.337,87.57,47.781,87.57z"></path> <path style="fill:#FFFFFF;" d="M179.709,84.947c-0.446,0-0.898-0.055-1.351-0.169c-2.945-0.744-4.729-3.734-3.986-6.679 c1.606-6.362,4.16-12.437,7.588-18.057c1.581-2.593,4.964-3.413,7.56-1.831c2.593,1.582,3.413,4.966,1.831,7.56 c-2.854,4.677-4.978,9.731-6.314,15.022C184.408,83.286,182.168,84.947,179.709,84.947z"></path> <path style="fill:#3678C6;" d="M183.092,94.202c0,11.67-2.62,22.72-7.31,32.61h-68.96V17.932 C148.942,17.932,183.092,52.082,183.092,94.202z"></path> <path style="fill:#A3E261;" d="M314.422,94.202c0,13.68-3.6,26.51-9.91,37.61c-13.11,23.09-37.92,38.66-66.36,38.66 c-42.13,0-76.27-34.15-76.27-76.27s34.14-76.27,76.27-76.27C280.272,17.932,314.422,52.082,314.422,94.202z"></path> <path style="fill:#FFFFFF;" d="M217.746,42.989c-2.252,0-4.365-1.394-5.174-3.635c-1.031-2.857,0.449-6.009,3.307-7.04 c3.271-1.181,6.663-2.105,10.078-2.749c2.984-0.56,5.86,1.403,6.423,4.388c0.562,2.985-1.403,5.861-4.388,6.423 c-2.84,0.534-5.659,1.303-8.38,2.285C218.996,42.884,218.366,42.989,217.746,42.989z"></path> <path style="fill:#FFFFFF;" d="M178.409,91.772c-0.24,0-0.482-0.016-0.727-0.048c-3.012-0.397-5.13-3.161-4.733-6.172 c2.23-16.894,10.844-32.089,24.255-42.785c2.375-1.894,5.836-1.504,7.729,0.87c1.894,2.375,1.504,5.835-0.87,7.729 c-11.176,8.914-18.353,21.565-20.209,35.625C183.489,89.758,181.126,91.772,178.409,91.772z"></path> <path style="fill:#90BC61;" d="M314.422,94.202c0,13.68-3.6,26.51-9.91,37.61h-66.36V17.932 C280.272,17.932,314.422,52.082,314.422,94.202z"></path> </g> <path style="fill:#EA587F;" d="M323.23,123.058l-3.17,19.5l-26.93,165.46c-1.79,10.97-11.26,19.03-22.38,19.03H74.22 c-11.12,0-20.59-8.06-22.38-19.03l-26.93-165.46l-3.17-19.5H323.23z"></path> <path style="fill:#EA587F;" d="M344.98,112.558c0,5.8-4.7,10.5-10.5,10.5H10.5c-2.9,0-5.52-1.18-7.42-3.08 c-1.9-1.9-3.08-4.52-3.08-7.42c0-5.8,4.7-10.5,10.5-10.5h323.98c2.9,0,5.52,1.18,7.42,3.08 C343.8,107.038,344.98,109.658,344.98,112.558z"></path> <polygon style="fill:#CE3E6B;" points="323.23,123.058 320.06,142.558 24.91,142.558 21.74,123.058 "></polygon> <path style="fill:#CE3E6B;" d="M344.955,113.283c-0.375,5.564-5.228,9.775-10.805,9.775h-10.92l-3.17,19.5l-26.933,165.465 c-1.785,10.969-11.259,19.025-22.372,19.025H172.48v-224.99h162c2.9,0,5.52,1.18,7.42,3.08 C343.957,107.195,345.17,110.096,344.955,113.283z"></path> <rect x="99.53" y="170.472" style="fill:#FFFFFF;" width="145.911" height="95.076"></rect> <rect x="172.48" y="170.472" style="fill:#E6E6E6;" width="72.96" height="95.076"></rect> <path style="fill:#CE3E6B;" d="M172.48,308.018v19.03H74.22c-11.12,0-20.59-8.06-22.38-19.03H172.48z"></path> </g> </g></svg>