<svg width="48" height="48" viewBox="0 0 48 48" fill="none" xmlns="http://www.w3.org/2000/svg">
<path d="M43 25H5L6.72985 42.2985C6.88321 43.8321 8.17371 45 9.71496 45H38.285C39.8263 45 41.1168 43.8321 41.2701 42.2985L43 25Z" fill="#F69292"/>
<path d="M43 20H5C3.89543 20 3 20.8954 3 22C3 23.1046 3.89543 24 5 24H43C44.1046 24 45 23.1046 45 22C45 20.8954 44.1046 20 43 20Z" fill="#F07C7C"/>
<path d="M34 31H15C14.4477 31 14 31.4477 14 32C14 32.5523 14.4477 33 15 33H34C34.5523 33 35 32.5523 35 32C35 31.4477 34.5523 31 34 31Z" fill="white"/>
<path d="M29 36H19C18.4477 36 18 36.4477 18 37C18 37.5523 18.4477 38 19 38H29C29.5523 38 30 37.5523 30 37C30 36.4477 29.5523 36 29 36Z" fill="white"/>
<path d="M31.7 17.6655C33 17.6655 33 17.2452 33 16.3311C32.9982 14.4667 32.6158 12.6234 31.8775 10.92C31.1392 9.21656 30.0613 7.69085 28.7134 6.44122C27.3655 5.19158 25.7775 4.24574 24.0517 3.66467C22.3259 3.0836 20.5006 2.88019 18.6935 3.06756C16.8864 3.25493 15.1377 3.82892 13.5599 4.75252C11.9822 5.67613 10.6105 6.92886 9.53328 8.42995C8.45606 9.93104 7.69722 11.6472 7.30567 13.4677C6.91413 15.2883 6.89856 17.1729 7.25999 19H22.6L31.7 17.6655Z" fill="#FFC0CB"/>
<path d="M40.6561 19C41.0638 17.4661 41.1096 15.8603 40.7902 14.3061C40.4708 12.752 39.7946 11.2909 38.8137 10.0352C37.8327 8.7796 36.5732 7.7629 35.1319 7.06334C33.6906 6.36377 32.106 6 30.5 6C28.894 6 27.3094 6.36377 25.8681 7.06334C24.4269 7.7629 23.1673 8.7796 22.1863 10.0352C21.2054 11.2909 20.5292 12.752 20.2098 14.3061C19.8904 15.8603 19.9362 17.4661 20.3439 19H40.6561Z" fill="#ED758A"/>
<circle cx="12" cy="15" r="2" fill="#ED758A"/>
<circle cx="15.5" cy="8.5" r="1.5" fill="#ED758A"/>
<circle cx="16.5" cy="12.5" r="0.5" fill="#ED758A"/>
<circle cx="33" cy="10" r="2" fill="#894646"/>
<circle cx="36" cy="15" r="1" fill="#894646"/>
<circle cx="25.5" cy="15.5" r="1.5" fill="#894646"/>
<circle cx="27.5" cy="10.5" r="0.5" fill="#894646"/>
</svg>
