<svg width="44" height="40" fill="none" xmlns="http://www.w3.org/2000/svg"><path d="M20.9 17h18.81a6.989 6.989 0 0 0-5.753-8.936A9 9 0 1 0 20.9 17ZM3 1a1 1 0 0 0-1 1v4a11.013 11.013 0 0 0 11 11 1 1 0 0 0 1-1v-4A11.013 11.013 0 0 0 3 1Z" fill="#72C472"/><path d="M30 14a8.009 8.009 0 0 1-8-8 1 1 0 0 1 2 0 6.006 6.006 0 0 0 6 6 1 1 0 0 1 0 2Z" fill="#4DA34D"/><path d="M43 19H1a1 1 0 0 0-1 1 22.09 22.09 0 0 0 12.675 19.905.991.991 0 0 0 .425.095h17.8a.991.991 0 0 0 .425-.095A22.091 22.091 0 0 0 44 20a1 1 0 0 0-1-1Z" fill="#E6E6E6"/><path d="M43 19H1a1 1 0 0 0-1 1 22.09 22.09 0 0 0 12.675 19.905.991.991 0 0 0 .425.095h17.8a.991.991 0 0 0 .425-.095A22.091 22.091 0 0 0 44 20a1 1 0 0 0-1-1Z" fill="url(#a)"/><defs><linearGradient id="a" x1="22" y1="19" x2="22" y2="40" gradientUnits="userSpaceOnUse"><stop stop-color="#C5DCE7"/><stop offset="1" stop-color="#80B0CB"/></linearGradient></defs></svg>