<svg width="48" height="48" fill="none" xmlns="http://www.w3.org/2000/svg"><path fill-rule="evenodd" clip-rule="evenodd" d="M30.462 17.735H46.96a1.043 1.043 0 0 1 .635 1.87l-9.751 7.55a9 9 0 0 0-14.435 10.683L9.696 47.8a1.044 1.044 0 0 1-1.606-1.166l5.476-16.841L.405 19.604a1.044 1.044 0 0 1 .639-1.87h16.498L23.012.72a1.042 1.042 0 0 1 1.983 0l5.467 17.017Z" fill="url(#a)"/><path fill-rule="evenodd" clip-rule="evenodd" d="M36 41H26a6 6 0 0 0-6 6c0 .552.445 1 1 1h20c.552 0 1-.453 1-1a6 6 0 0 0-6-6Z" fill="#335262"/><path d="M31 39a6 6 0 1 0 0-12 6 6 0 0 0 0 12Z" fill="#5A7A84"/><defs><linearGradient id="a" x1="23.998" y1="2.006" x2="23.998" y2="48" gradientUnits="userSpaceOnUse"><stop stop-color="#FFD36E"/><stop offset="1" stop-color="#F6B828"/></linearGradient></defs></svg>