<svg width="46" height="46" fill="none" xmlns="http://www.w3.org/2000/svg"><path d="M23 36a1 1 0 0 1-.537-.156l-22-14a1.002 1.002 0 0 1 .09-1.739L23 6l22.447 14.105a1.002 1.002 0 0 1 .09 1.739l-22 14A1 1 0 0 1 23 36Z" fill="#A67C52"/><path d="M38 37H8V1a1 1 0 0 1 1-1h28a1 1 0 0 1 1 1v36Z" fill="#E6E6E6"/><path d="M45 46a1.03 1.03 0 0 1-.252-.032l-23-6L22 33l24-12v24a1.002 1.002 0 0 1-1 1Z" fill="#B28F77"/><path d="M45 46H1a1 1 0 0 1-1-1V21l45.479 23.122A.999.999 0 0 1 45 46Z" fill="#C19F85"/><path d="M31 9H15a1 1 0 1 1 0-2h16a1 1 0 1 1 0 2ZM31 16H15a1 1 0 1 1 0-2h16a1 1 0 1 1 0 2ZM24 23h-9a1 1 0 1 1 0-2h9a1 1 0 1 1 0 2Z" fill="#B3B3B3"/></svg>