<svg width="45" height="45" fill="none" xmlns="http://www.w3.org/2000/svg"><path d="M36.648 31.98 14.021 9.351a1 1 0 0 0-1.656.39L1.052 43.684a1 1 0 0 0 1.264 1.264l33.942-11.313a1 1 0 0 0 .39-1.656Z" fill="#EFD358"/><path d="M36.648 33.394c1.953-1.953-1.846-8.917-8.485-15.556-6.64-6.64-13.604-10.438-15.557-8.486-1.952 1.953 1.847 8.918 8.486 15.557 6.639 6.639 13.603 10.438 15.556 8.485Z" fill="#E2AC4B"/><path d="M30 24a1 1 0 0 1-.9-1.426c2.516-5.349 8.805-7.2 15.29-4.5a1 1 0 0 1-.77 1.846c-5.451-2.27-10.674-.828-12.71 3.5A1 1 0 0 1 30 24Z" fill="#43A6DD"/><path d="M36 11a3 3 0 1 0 0-6 3 3 0 0 0 0 6Z" fill="#E86C60"/><path d="M40 40a2 2 0 1 0 0-4 2 2 0 0 0 0 4Z" fill="#E2AC4B"/><path d="M27 19a2 2 0 1 0 0-4 2 2 0 0 0 0 4Z" fill="#5A7A84"/><path d="M41.5 27a1.5 1.5 0 1 0 0-3 1.5 1.5 0 0 0 0 3Z" fill="#AE453E"/><path d="M16.5 5a1.5 1.5 0 1 0 0-3 1.5 1.5 0 0 0 0 3Z" fill="#E2AC4B"/><path d="M20 18a1 1 0 0 1-.6-1.8 12.026 12.026 0 0 0 3.681-14.806 1 1 0 0 1 1.838-.788A13.975 13.975 0 0 1 20.6 17.8a.994.994 0 0 1-.6.2Z" fill="#E86C60"/><path d="M3.172 12.828a1 1 0 0 1-.707-.293 5.001 5.001 0 1 1 7.07-7.07A1 1 0 0 1 8.121 6.88a3.072 3.072 0 0 0-4.242 0 3 3 0 0 0 0 4.242 1 1 0 0 1-.707 1.707Z" fill="#43A6DD"/></svg>