<svg width="48" height="48" fill="none" xmlns="http://www.w3.org/2000/svg"><path d="M34 9a3 3 0 0 1-3-3c0-.552-.45-1-1.007-1H18.007C17.45 5 17 5.453 17 6a3 3 0 0 1-6 0c0-.552-.456-1-.995-1H3c-1.105 0-2 .902-2 2.003v33.994C1 42.103 1.898 43 3.006 43h41.988A2.008 2.008 0 0 0 47 40.997V7.003A1.996 1.996 0 0 0 45 5h-7.005c-.55 0-.995.453-.995 1a3 3 0 0 1-3 3Z" fill="#BFDEE0"/><path fill-rule="evenodd" clip-rule="evenodd" d="M27 19c0-.552.45-1 1.007-1h11.986c.556 0 1.007.444 1.007 1 0 .552-.45 1-1.007 1H28.007A1.001 1.001 0 0 1 27 19ZM27 25c0-.552.45-1 1.007-1h11.986c.556 0 1.007.444 1.007 1 0 .552-.45 1-1.007 1H28.007A1.001 1.001 0 0 1 27 25ZM27 31c0-.552.438-1 1.003-1h4.994A.999.999 0 0 1 34 31c0 .552-.438 1-1.003 1h-4.994A.999.999 0 0 1 27 31ZM16 27h-4a5 5 0 0 0-5 5c0 .552.45 1 1.007 1h11.986C20.55 33 21 32.547 21 32a5 5 0 0 0-5-5Z" fill="#5A7A84"/><path d="M14 25a4 4 0 1 0 0-8 4 4 0 0 0 0 8Z" fill="#5A7A84"/></svg>