<svg width="46" height="44" fill="none" xmlns="http://www.w3.org/2000/svg"><path d="M28 20a1 1 0 0 1-.713-.3l-8.4-8.538a6.615 6.615 0 0 1 0-9.241A6.394 6.394 0 0 1 28 1.9a6.4 6.4 0 0 1 9.115.026 6.618 6.618 0 0 1 0 9.241l-8.4 8.538A.998.998 0 0 1 28 20Z" fill="#ED7064"/><path d="M45.11 27.934a3.268 3.268 0 0 0-3.845-.608l-8.529 4.26a5.225 5.225 0 0 1-4.565 3.575l-11.1.793H17a1.001 1.001 0 1 1-.07-2l.07-.005 11.008-.573a3.222 3.222 0 0 0 0-6.427l-10.3-1.872a7.937 7.937 0 0 1-1.379-.38l-5.536-2.076A8.02 8.02 0 0 0 7.1 22.16l-6.209.69a1 1 0 0 0-.89.994v12.1a1 1 0 0 0 1 1h.838c1.416 0 2.807.377 4.031 1.09l7.468 4.366a7.994 7.994 0 0 0 5.678.918l14.259-3a7.99 7.99 0 0 0 3.155-1.43l8.276-6.213a3.192 3.192 0 0 0 .404-4.741Z" fill="#EEBC99"/></svg>