<svg width="48" height="48" fill="none" xmlns="http://www.w3.org/2000/svg"><path d="M24 11a5 5 0 1 1 0-10 5 5 0 0 1 0 10Z" fill="#6CA5B7"/><path d="M15 24v-7a4 4 0 0 1 4-4h10a4 4 0 0 1 4 4v7H15Z" fill="#3D6C7B"/><path d="M14 47h20a1 1 0 0 0 1-1V31H13v15a1 1 0 0 0 1 1Z" fill="#BF8C5A"/><path d="M9.143 31h29.714c.303 0 .594-.105.808-.293A.941.941 0 0 0 40 30v-3c0-.265-.12-.52-.335-.707a1.231 1.231 0 0 0-.808-.293H9.143a1.23 1.23 0 0 0-.808.293A.941.941 0 0 0 8 27v3c0 .265.12.52.335.707.214.188.505.293.808.293Z" fill="#D0AB86"/></svg>