<svg width="48" height="48" fill="none" xmlns="http://www.w3.org/2000/svg"><path d="M46 18H30.19L24.952 1.694a1 1 0 0 0-1.9 0L17.81 18H2a1 1 0 0 0-.612 1.79L14 29.555 8.752 45.69a1 1 0 0 0 1.539 1.118L24 36.849l13.709 9.96a1 1 0 0 0 1.539-1.118L34 29.554l12.608-9.763A1 1 0 0 0 46 18Z" fill="url(#a)"/><defs><linearGradient id="a" x1="23.998" y1="1.006" x2="23.998" y2="47" gradientUnits="userSpaceOnUse"><stop stop-color="#FFD36E"/><stop offset="1" stop-color="#F6B828"/></linearGradient></defs></svg>