<svg width="48" height="48" fill="none" xmlns="http://www.w3.org/2000/svg"><path d="M45 34a2 2 0 0 1 2-2v-3a2 2 0 0 1 0-4v-3a2 2 0 0 1 0-4v-3a2 2 0 0 1 0-4V8a1 1 0 0 0-1-1h-6a2 2 0 0 1-4 0H2a1 1 0 0 0-1 1v3a2 2 0 1 1 0 4v3a2 2 0 1 1 0 4v3a2 2 0 1 1 0 4v3a2 2 0 1 1 0 4v4a1 1 0 0 0 1 1h34a2 2 0 0 1 4 0h6a1 1 0 0 0 1-1v-4a2 2 0 0 1-2-2Z" fill="#EFD358"/><path d="M31.917 33H8.083C7.485 33 7 32.552 7 32V16c0-.552.485-1 1.083-1h23.834c.598 0 1.083.448 1.083 1v16c0 .552-.485 1-1.083 1ZM38 17a1 1 0 0 1-1-1v-2a1 1 0 1 1 2 0v2a1 1 0 0 1-1 1ZM38 23a1 1 0 0 1-1-1v-2a1 1 0 1 1 2 0v2a1 1 0 0 1-1 1ZM38 29a1 1 0 0 1-1-1v-2a1 1 0 1 1 2 0v2a1 1 0 0 1-1 1ZM38 35a1 1 0 0 1-1-1v-2a1 1 0 1 1 2 0v2a1 1 0 0 1-1 1Z" fill="#D6BA45"/></svg>