<svg width="48" height="48" fill="none" xmlns="http://www.w3.org/2000/svg"><path d="M12 2h24a5 5 0 0 1 5 5v27H7V7a5 5 0 0 1 5-5Z" fill="#A2703F"/><path d="M11.333 42 8 41v5h2l1.333-4ZM36.667 42 38 46h2v-5l-3.333 1Z" fill="#7D5731"/><path d="M9 42a5 5 0 0 1-5-5V25.977A4.992 4.992 0 1 1 12 22v12h24V22a5 5 0 1 1 8 3.977V37a5 5 0 0 1-5 5H9Z" fill="#A2703F"/><path d="M34 22v2H14v-2a7 7 0 0 0-7-7v2a5 5 0 0 1 5 5v12h24V22a5 5 0 0 1 5-5v-2a7 7 0 0 0-7 7ZM14 32v-6h20v6H14Z" fill="#F2F1ED"/><path d="M7 24a2 2 0 1 0 0-4 2 2 0 0 0 0 4ZM41 24a2 2 0 1 0 0-4 2 2 0 0 0 0 4Z" fill="#F2F1ED"/></svg>