<svg width="48" height="48" fill="none" xmlns="http://www.w3.org/2000/svg"><path d="M46 18h-2a1 1 0 1 1 0-2h2a1 1 0 1 1 0 2ZM42.314 7.1 40.9 8.515A1 1 0 1 1 39.485 7.1L40.9 5.686A1 1 0 1 1 42.314 7.1ZM32 2v2a1 1 0 1 1-2 0V2a1 1 0 1 1 2 0ZM21.1 5.686 22.515 7.1A1 1 0 1 1 21.1 8.515L19.686 7.1a1 1 0 1 1 1.415-1.414ZM31 27c5.523 0 10-4.477 10-10S36.523 7 31 7s-10 4.477-10 10 4.477 10 10 10Z" fill="#EFD358"/><path d="M10 37c-4.963 0-9-4.037-9-9s4.037-9 9-9c.813 0 1.623.115 2.422.344A12.005 12.005 0 0 1 23 13c4.724 0 8.962 2.767 10.9 6.998A8.894 8.894 0 0 1 38 19c4.963 0 9 4.037 9 9s-4.037 9-9 9H10Z" fill="#C6C6C6"/><path d="M24 47a1 1 0 0 1-1-1V36a1 1 0 1 1 2 0v10a1 1 0 0 1-1 1ZM16 43a1 1 0 0 1-1-1V32a1 1 0 1 1 2 0v10a1 1 0 0 1-1 1ZM32 43a1 1 0 0 1-1-1V32a1 1 0 1 1 2 0v10a1 1 0 0 1-1 1Z" fill="#42A6DD"/></svg>